<?xml version="1.0" encoding="utf-8"?>
<svg version="1.1" xmlns="http://www.w3.org/2000/svg" xmlns:xlink="http://www.w3.org/1999/xlink" x="0px" y="0px"
	 viewBox="0 0 200 68" xml:space="preserve">
<style type="text/css">
	.st0{fill:#DE6352;}
	.st1{fill:#404042;}
</style>
<path class="st0" d="M69,68.1H-0.1V-0.1H69V68.1z M0.9,67.1H68V0.9H0.9V67.1z"/>
<g>
<path class="st1" d="M51.6,16.8l1-0.2V6.8l-1-0.2l0-0.6h2.5h2.4l0,0.6l-0.9,0.2v4.3h3.7V6.8l-0.9-0.2V6h2.4h2.5l0,0.6l-1,0.2v9.9
	l1,0.2l0,0.6h-2.5h-2.4v-0.6l0.9-0.2v-4.7h-3.7v4.8l0.9,0.2l0,0.6h-2.4h-2.5L51.6,16.8z"/>
<path class="st1" d="M83.2,6.6V6h1.6h1.5v0.6l-1,0.2v6.7c0,2-0.8,3.6-4,4.3c-3.6,0-5.1-1.7-5.1-4.3V6.8l-1-0.2l0-0.6h2.3h2.6l0,0.6
	l-1,0.2v6.7c0,1.8,0.9,3,2.5,3c1.6,0,2.5-1.2,2.5-3V6.8L83.2,6.6z"/>
<path class="st1" d="M108.8,13.4l-0.1,3.3c-1.4,0.5-2.8,0.9-4.3,1c-3.3,0-6.2-1.9-6.2-5.7c0-3.8,2.5-5.8,6.7-6.3
	c1.3,0,2.6,0.3,3.8,0.9v3.3h-0.8l-1-2.3c-0.2-0.3-0.6-0.6-0.9-0.8c-0.4-0.2-0.8-0.3-1.2-0.2c-1.8,0-3.2,1.8-3.2,5.1
	c0,3.1,1.2,5.4,3.2,5.4c0.4,0,0.8-0.1,1.2-0.3c0.4-0.2,0.7-0.4,0.9-0.7l1.2-2.6H108.8z"/>
<path class="st1" d="M132.1,16.7l0.7,0.2v0.6h-1.7H129l-3.9-5.4l-0.2-0.4v4.9l0.9,0.2l0,0.6h-2.4h-2.5l0-0.6l1-0.2V6.8l-1-0.2l0-0.6
	h2.5h2.4l0,0.6l-0.9,0.2v4.6l0.3-0.1l4.6-4.5l-1.3-0.2V6h1.9h1.9l0.1,0.6l-1.4,0.2l-4.7,4.5l1.6-0.2L132.1,16.7z"/>
<path class="st1" d="M63.8,33.5c0,3.6-1.8,5.4-6.3,6.3c-3.6,0-5.9-2.4-5.9-5.8c0-3.6,1.8-5.4,6.3-6.3C61.5,27.8,63.8,30.2,63.8,33.5
	z M58,39c1.7,0,2.4-2.1,2.4-4.8c0-3-1-5.5-2.9-5.5c-1.7,0-2.4,2.2-2.4,4.8C55.1,36.5,56.1,39,58,39z"/>
<path class="st1" d="M83.5,39.6h-3h-3l0-0.6l1.5-0.1v-10h-1.5l-1.2,2.8h-0.7V28h4.9h4.8v3.5h-0.6l-1.2-2.8H82v10l1.5,0.2L83.5,39.6z
	"/>
<path class="st1" d="M98,38.9l1-0.2v-9.8l-1-0.2l0-0.6h2.4h3.9c1.8,0,3.4,1,3.4,2.8s-1.6,2.8-4.2,3.1l2.7,0.8l2.2,4l0.7,0.2v0.6h-2
	h-1.6l-2.7-5.2l-0.1-0.1H102v4.5l1,0.2l-0.1,0.6h-2.5H98L98,38.9z M102,33.5h0.7c1,0,1.7-0.9,1.7-2.5c0-1.5-0.7-2.4-1.6-2.4
	l-0.9,0.1V33.5z"/>
<path class="st1" d="M121,38.9l0.8-0.2l3.7-10.2l2.6-0.7l3.6,11l0.9,0.2l0,0.6h-2.9h-2.3l0-0.6l1.1-0.2l-0.9-3h-3.7l-1,3l1.2,0.2
	v0.6h-1.5H121L121,38.9z M127.3,35.1l-1.5-4.8v-0.5l-1.7,5.2L127.3,35.1z"/>
<path class="st1" d="M146,30.6l-0.2-0.9v9l1.1,0.2v0.6h-1.5h-1.4l0-0.6l1-0.2v-9.9l-1-0.2l0-0.6h1.2h2.6l4.9,6.4l0.3,0.9v-6.5
	l-1.1-0.2v-0.6h1.5h1.4l0,0.6l-1,0.2v10.7h-1.4L146,30.6z"/>
<path class="st1" d="M174.2,39.6h-3h-3v-0.6l1.5-0.2v-10h-1.5l-1.2,2.8h-0.7V28h4.9h4.8v3.5h-0.6l-1.2-2.8h-1.5v10l1.5,0.2
	L174.2,39.6z"/>
<path class="st1" d="M200,33.5c0,3.6-1.8,5.4-6.3,6.3c-3.6,0-5.9-2.4-5.9-5.8c0-3.6,1.8-5.4,6.3-6.3C197.7,27.8,200,30.2,200,33.5z
	 M194.2,39c1.7,0,2.4-2.1,2.4-4.8c0-3-1.1-5.5-2.9-5.5c-1.7,0-2.4,2.2-2.4,4.8C191.3,36.5,192.3,39,194.2,39z"/>
<path class="st1" d="M62.3,57.6l-0.1,3.3c-1.4,0.5-2.8,0.9-4.3,1c-3.3,0-6.2-1.9-6.2-5.7c0-3.8,2.5-5.8,6.7-6.3
	c1.3,0,2.6,0.3,3.8,0.9V54h-0.8l-1-2.3c-0.2-0.3-0.6-0.6-0.9-0.8c-0.4-0.2-0.8-0.3-1.2-0.2c-1.8,0-3.2,1.8-3.2,5.1
	c0,3.1,1.2,5.4,3.2,5.4c0.4,0,0.8-0.1,1.2-0.3s0.7-0.4,0.9-0.7l1.1-2.5L62.3,57.6z"/>
<path class="st1" d="M74,61l0.8-0.2l3.6-10.2l2.6-0.7l3.7,11l0.9,0.2v0.6h-2.9h-2.3l0-0.6l1.1-0.2l-1-3h-3.7l-1,3L77,61v0.6h-1.5
	h-1.4L74,61z M80.2,57.2l-1.5-4.8v-0.5L77,57.2H80.2z"/>
<path class="st1" d="M96.1,61l1-0.2v-9.9l-1-0.2l0-0.6h1.6h2.8l3,8l-0.1,0.8l3.1-8.8h2.1h2.1l0,0.6l-1,0.2v9.9l1,0.2l0,0.6h-2.5
	h-2.4l-0.1-0.6l1-0.2v-8.5l0.1-1l-3.6,10.3h-1.7l-3.4-9.5l-0.2-1v9.7l1,0.2v0.6h-1.5h-1.4L96.1,61z"/>
<path class="st1" d="M121,61l0.8-0.2l3.7-10.2l2.6-0.7l3.7,11l0.9,0.2l0,0.6h-2.9h-2.3l0-0.6l1.1-0.2l-0.9-3h-3.7l-1,3L124,61v0.6
	h-1.5h-1.4L121,61z M127.3,57.2l-1.5-4.8v-0.5l-1.7,5.2H127.3z"/>
<path class="st1" d="M143.8,61l1-0.2v-9.9l-1-0.2l0.1-0.6h2.4h3.9c1.8,0,3.4,1,3.4,2.8c0,1.9-1.6,2.8-4.2,3.1l2.7,0.8l2.2,4l0.7,0.2
	v0.6h-2h-1.6l-2.7-5.2l-0.1-0.1h-0.5v4.5l1,0.2l0,0.6h-2.5h-2.5L143.8,61z M147.9,55.6h0.7c1,0,1.7-0.9,1.7-2.5
	c0-1.5-0.7-2.4-1.6-2.4l-0.9,0.1L147.9,55.6z"/>
<path class="st1" d="M165.5,56.3c0-3.9,2.5-5.9,6.8-6.4c1.3,0,2.6,0.3,3.8,0.9V54h-0.8l-1-2.3c-0.2-0.3-0.5-0.6-0.9-0.8
	c-0.4-0.2-0.8-0.3-1.2-0.3c-1.9,0-3.2,1.8-3.2,5s1,5.4,3,5.4c0.4,0,0.9-0.1,1.2-0.4v-3.6l-1.3-0.2l0-0.7h2.7h2.3l0.1,0.7l-0.8,0.2
	v3.7c-1.5,0.6-3.1,1-4.8,1.1C168.3,61.9,165.5,59.8,165.5,56.3z"/>
<path class="st1" d="M200,55.6c0,3.6-1.8,5.4-6.3,6.3c-3.6,0-5.9-2.4-5.9-5.8c0-3.6,1.8-5.4,6.3-6.3C197.7,49.9,200,52.2,200,55.6z
	 M194.2,61.1c1.7,0,2.4-2.1,2.4-4.8c0-3-1.1-5.5-2.9-5.5c-1.7,0-2.4,2.1-2.4,4.8C191.3,58.5,192.3,61.1,194.2,61.1z"/>
  </g>
</svg>
